<svg xmlns="http://www.w3.org/2000/svg" viewBox="0 0 614.17 342.88"><defs><style>.a{fill:#575756;fill-rule:evenodd;}</style></defs><path class="a" d="M297.38,64.79c0,3.93,3,5.14,5.58,5.71a15.6,15.6,0,0,0,6.2-.1c2.21-.63,4.8-1.43,5.22-4,.1-.64,0-.22-.28.11a9.37,9.37,0,0,1-4.61,2.45c-3.37.73-8.35.4-11-2A3.16,3.16,0,0,1,297.38,64.79Z"/><path class="a" d="M306.62,135.83c-69.89-12.34-90.31-16.56-144.11-27.36l-8.68,24.43a32.69,32.69,0,0,1,9,6.68c3.6,3.6,9.24,12.78,10.34,13.88.66.66,3.57,1.95,6.75,6.2.82,1.1,8.17,6.27,11.44,13.05.27.57.56,1.11.86,1.65a26,26,0,0,1,3.78,3.13c3.87,3.87,4.66,6.45,5.83,9.47l3.25,3.3c7.75,7.93,5.82,8.89,9.1,14a26.67,26.67,0,0,1,10.59,15.14c21.61,9.93,42.63,19.73,81.5,37.28,41.3-19.12,64.31-29.92,84.36-39.17,2.81-7.51,3.53-6.29,6.84-11.75l4.09-6.14a65.7,65.7,0,0,1,8.64-10.3c3.41-3.1,5.1-5.89,7.79-8.84,2.95-3.25,3.95-5.49,6.06-8.05l5.29-7.61c3.13-5.14,6.05-6.5,9.49-9.93l4.83-6.17c4.78-7.08,5.26-6.49,11.67-11.78a25.62,25.62,0,0,1,3.17-2.23L450,110.21C412.21,117.21,372.45,124.18,306.62,135.83Z"/><path class="a" d="M306.88,129.6c140.34-24.84,163.29-28.68,295.72-56L306.88,13.51l-.36-.07L12.19,73.11,95.67,89.88c32-10.18,168.68-15.29,201.87-26,.78-2,4.33-3.55,8.59-3.55,4.84,0,8.76,2,8.76,4.38V67c0,1.72-1.55,2.74-4.5,4.08C284.18,79.88,145.9,81.5,108.93,92.55,175.12,105.05,240.26,118.66,306.88,129.6Z"/><path class="a" d="M310.08,68.17c2.45-.69,4.1-2,4.1-3.51,0-2.22-3.6-4-8.05-4-3.91,0-7.18,1.4-7.9,3.25a2.28,2.28,0,0,0-.14.77v.12c.13,2.17,3.68,3.9,8,3.9A14.6,14.6,0,0,0,310.08,68.17Z"/><path class="a" d="M101.78,143.43c2.92-4,4.12-7.34,4.12-11.54-.57-5.25-3.77-9.18-2.73-8.26,7.53,6.63,4.48,16.93-1.39,20.12l-.39.2.39-.52Zm8.72-9.67a13.65,13.65,0,0,0-8.58-12.61,14.1,14.1,0,0,0-9.31-.41,13.56,13.56,0,0,0-.56,25.85,14,14,0,0,0,9.72-.16A13.64,13.64,0,0,0,110.5,133.76Z"/><path class="a" d="M81.75,293.77c1.84-1.17,7.73-1.71,13.83-5.14,19.44-10.91,24.13-26.92,26.24-30.11a49,49,0,0,1,1.14-17.3,27.2,27.2,0,0,0-.8-7.28l-.94-5.39c-3.07-7.77-1.38-5.11-2.74-10.41-1-3.75-.78-6.82-.78-10.63a25.11,25.11,0,0,1-.27-13.43c-6.35-12.16-15.85-19.8-16.12-34.18-.4-21.22,0-44.23,0-65.56,5.69-5.43,53.09-10.7,97.63-13.57,48.17-3.09,63.81-4.11,88.38-6.75,7.73-1,17.91-2.17,19.61-2.54-5.4,0-10.3-2-10-6.21-19.43,5.49-49,8.54-131.5,15.57-39.1,3.33-70.46,8.84-72.64,11.39-.62.09-.86,20.11-.9,30.3,0,5.8-.6,9.42-.6,15.4-.34,18.88-2.22,36.47,3.87,54.69,1.92,5.69,4,11.38,5.8,17.11,5.39,17.65,8.16,41.4-5.93,55.89-12.29,12.66-24.49,9.78-39.5,13.5a4.63,4.63,0,0,0,1.06,3.29c6.83,8.78,15.83,14.79,27,16.1h2.92c5.39-.26,10.88-2,16.74-4.66a40.54,40.54,0,0,0,21.61-23.39,47.92,47.92,0,0,1-2.8-10.79,34.84,34.84,0,0,1-4.54,12.89C109.69,284.86,97,293.77,81.75,293.77Z"/><path class="a" d="M422,177.62c2.68-3.65,6-7.76,8.82-11.34,5.74-7.24,28-34,38.47-28.15,10.22,5.68,13.88,27.59,15.61,38.44,5.31,34.12,5.47,80.8.56,115.17q-2.54,17.63-5.08,35.25c.22,1.13.87,2.95,2.62,2.55,7.3-9.11,12.72-53.46,13.75-67.31,2.34-31.53,6.78-113-12.63-137.64-18.77-22.9-56,32.29-65.21,45.54-16.1,23.43-31.11,48.62-45,73.44-1.33,2.39-2.27,4.34,1.58,2.87,3.12-1.19,9.35-13.06,11.45-16.49C397.9,212,409.58,194.62,422,177.62Z"/><path class="a" d="M192.82,177.62c-2.68-3.65-6-7.76-8.82-11.34-5.75-7.24-28-34-38.48-28.15-10.21,5.68-13.88,27.59-15.6,38.44-5.31,34.12-5.47,80.8-.56,115.17q2.52,17.63,5.08,35.25c-.22,1.13-.87,2.95-2.62,2.55-7.31-9.11-12.72-53.46-13.75-67.31-2.34-31.53-6.78-113,12.63-137.64,18.77-22.9,56,32.29,65.21,45.54,16.1,23.43,31.11,48.62,45,73.44,1.34,2.39,2.28,4.34-1.57,2.87-3.12-1.19-9.35-13.06-11.45-16.49C216.89,212,205.21,194.62,192.82,177.62Z"/></svg>