<svg width="614" height="564" viewBox="0 0 614 564" fill="none" xmlns="http://www.w3.org/2000/svg">
<rect x="25" width="564" height="564" rx="282" fill="white"/>
<path d="M147.567 80.9077C116.604 105.075 91.5572 135.985 74.3304 171.288C57.1036 206.59 48.1501 245.356 48.1505 284.639C48.1505 427.373 163.838 543.073 306.535 543.073C449.231 543.073 564.919 427.373 564.919 284.639C564.92 244.654 555.644 205.214 537.822 169.423C520 133.631 494.118 102.464 462.211 78.3735" stroke="#575756" stroke-width="2.83" stroke-miterlimit="22.93"/>
<path d="M141.585 72.1006C109.194 97.2525 82.9793 129.478 64.9461 166.315C46.9129 203.151 37.538 243.624 37.538 284.639C37.538 433.231 157.992 553.698 306.535 553.698C455.078 553.698 575.542 433.221 575.542 284.639C575.542 242.885 565.827 201.705 547.164 164.356C528.502 127.007 501.404 94.5156 468.016 69.4521" stroke="#569FA7" stroke-width="4.25" stroke-miterlimit="22.93"/>
<path fill-rule="evenodd" clip-rule="evenodd" d="M159.809 78.0001L148.917 60.7075L151.637 58.9938L156.476 66.6898L160.806 53.2088L164.378 50.9551L160.993 61.6838L176.372 67.5726L173.329 69.494L160.079 64.4672L158.407 69.7537L162.53 76.2968L159.809 78.0001Z" fill="#575756"/>
<path fill-rule="evenodd" clip-rule="evenodd" d="M178.719 56.9685L185.676 53.0011L178.334 48.1508L178.719 56.9685ZM176.185 67.5518L175.074 44.5469L176.829 43.5083L196.122 56.1376L193.142 57.8409L188.251 54.6213L178.843 59.9804L179.134 65.8277L176.185 67.5518Z" fill="#575756"/>
<path fill-rule="evenodd" clip-rule="evenodd" d="M201.989 53.9773L194.616 37.931L186.766 41.5349L185.582 38.9384L204.222 30.3804L205.416 32.9769L197.514 36.6016L204.886 52.6479L201.989 53.9773Z" fill="#575756"/>
<path fill-rule="evenodd" clip-rule="evenodd" d="M213.297 48.8882L220.358 28.0747L208.894 31.9072L207.939 29.051L225.01 23.3491L217.856 44.2561L230.441 40.0497L231.376 42.8643L213.297 48.8882Z" fill="#575756"/>
<path fill-rule="evenodd" clip-rule="evenodd" d="M236.152 41.0259L231.583 21.0433L250.337 16.7539L251.001 19.662L235.394 23.2244L236.536 28.1889L246.775 25.852L247.44 28.7601L237.201 31.0969L238.644 37.4012L255.124 33.6311L255.788 36.5392L236.152 41.0259Z" fill="#575756"/>
<path fill-rule="evenodd" clip-rule="evenodd" d="M260.254 35.3137L257.543 14.9987L259.205 14.7806L274.054 27.3269L272.143 13.0566L275.248 12.6411L277.948 32.9561L276.286 33.1742L261.5 20.6695L263.4 34.8878L260.254 35.3137Z" fill="#575756"/>
<path fill-rule="evenodd" clip-rule="evenodd" d="M287.813 24.1693L295.798 23.515L291.187 16.0163L287.813 24.1693ZM281.053 32.6858L289.786 11.4049L291.79 11.2388L303.928 30.8267L300.512 31.1383L297.397 26.1426L286.65 26.9839L284.438 32.4157L281.053 32.6858Z" fill="#72A5B0"/>
<path fill-rule="evenodd" clip-rule="evenodd" d="M307.106 31.4707L307.739 11L310.948 11.0935L310.657 20.1916L321.768 11.4258L325.994 11.5608L317.189 18.5818L326.69 32.0731L323.077 31.9589L314.873 20.3785L310.543 23.8267L310.304 31.5642L307.106 31.4707Z" fill="#72A5B0"/>
<path fill-rule="evenodd" clip-rule="evenodd" d="M334.987 25.0832L342.941 26.1218L340.034 17.8131L334.987 25.0832ZM326.555 31.9587L339.649 13.0459L341.643 13.3159L349.327 35.033L345.921 34.576L343.917 29.0611L333.191 27.607L329.868 32.4053L326.555 31.9587Z" fill="#72A5B0"/>
<path fill-rule="evenodd" clip-rule="evenodd" d="M365.859 17.4288C368.794 17.9495 371.405 19.6064 373.127 22.0401C373.903 23.1946 374.423 24.5022 374.65 25.8747C374.878 27.2472 374.808 28.6525 374.446 29.9958C374.198 31.3516 373.659 32.6375 372.867 33.7652C372.075 34.893 371.048 35.8357 369.856 36.5285C367.224 37.914 364.159 38.2303 361.3 37.4114L352.432 35.3342L357.032 15.3516L365.91 17.4288H365.859ZM365.246 20.2849L359.472 18.9659L356.181 33.2154L361.985 34.5656C363.997 35.1511 366.158 34.9275 368.008 33.9424C368.851 33.4253 369.575 32.7361 370.133 31.9201C370.691 31.104 371.071 30.1793 371.248 29.2064C371.494 28.2504 371.536 27.2532 371.372 26.2797C371.207 25.3062 370.839 24.3784 370.292 23.5565C369.105 21.8458 367.292 20.6707 365.246 20.2849Z" fill="#72A5B0"/>
<path fill-rule="evenodd" clip-rule="evenodd" d="M377.052 41.1711L383.459 21.687L401.756 27.6901L400.811 30.5566L385.578 25.561L383.989 30.3905L393.999 33.6724L393.075 36.487L383.065 33.2051L381.029 39.3743L397.114 44.6504L396.19 47.465L377.052 41.1711Z" fill="#72A5B0"/>
<path fill-rule="evenodd" clip-rule="evenodd" d="M400.396 49.2098L408.983 30.5566L411.413 31.6783L414.03 46.1148L426.677 38.72L429.097 39.8313L420.52 58.4845L417.623 57.1551L423.801 43.7364L411.87 50.8093L409.513 37.1621L403.334 50.5808L400.396 49.2098Z" fill="#72A5B0"/>
<path d="M436.974 43.8819L426.78 61.7285L429.638 63.3617L439.833 45.5151L436.974 43.8819Z" fill="#72A5B0"/>
<path fill-rule="evenodd" clip-rule="evenodd" d="M435.857 66.8039L446.854 49.4697L463.094 59.7726L461.505 62.2964L447.975 53.7072L445.254 58.007L454.143 63.6466L452.534 66.16L443.645 60.5204L440.166 66.0042L454.434 75.0607L452.845 77.5741L435.857 66.8039Z" fill="#72A5B0"/>
<path fill-rule="evenodd" clip-rule="evenodd" d="M296.13 150.452C296.13 154.534 299.297 155.791 301.924 156.383C304.056 156.781 306.246 156.742 308.362 156.268C310.657 155.614 313.357 154.783 313.783 152.114C313.887 151.46 313.783 151.896 313.492 152.228C312.175 153.517 310.518 154.404 308.715 154.783C305.216 155.541 300.045 155.188 297.293 152.706C296.625 152.137 296.207 151.327 296.13 150.452Z" fill="#575756"/>
<path fill-rule="evenodd" clip-rule="evenodd" d="M305.725 224.224C233.162 211.418 211.958 207.025 156.092 195.818L147.037 221.202C150.529 222.962 153.691 225.313 156.383 228.15C160.121 231.878 165.988 241.413 167.13 242.555C167.805 243.241 170.827 244.632 174.129 249.005C174.98 250.147 182.613 255.517 186.008 262.559C186.288 263.14 186.59 263.711 186.901 264.262C188.308 265.22 189.623 266.308 190.826 267.513C194.803 271.522 195.665 274.17 196.88 277.286L200.265 280.724C208.313 288.96 206.298 289.946 209.715 295.264C215.129 299.033 219.024 304.607 220.701 310.988C243.151 321.312 264.968 331.48 305.33 349.718C348.227 329.86 372.12 318.643 392.93 309.036C395.847 301.226 396.595 302.493 400.043 296.822L404.279 290.445C406.9 286.587 409.906 283.006 413.251 279.758C416.792 276.538 418.557 273.64 421.34 270.566C424.455 267.191 425.494 264.864 427.633 262.257L433.136 254.354C436.376 249.005 439.367 247.603 442.98 244.03L447.996 237.632C452.959 230.279 453.468 230.881 460.114 225.398C461.152 224.537 462.256 223.759 463.416 223.071L454.569 197.657C415.369 204.896 374.093 212.124 305.725 224.224Z" fill="#575756"/>
<path fill-rule="evenodd" clip-rule="evenodd" d="M306.005 217.753C451.724 191.965 475.555 187.966 613.08 159.592L305.995 97.193L305.621 97.1099L0 159.083L86.6854 176.542C119.914 165.969 261.842 160.662 296.296 149.476C297.106 147.399 300.803 145.799 305.227 145.799C310.242 145.799 314.312 147.876 314.312 150.348V152.654C314.312 154.44 312.703 155.51 309.64 156.902C282.423 166.156 138.834 167.807 100.444 179.284C169.176 192.266 236.817 206.391 306.005 217.753Z" fill="#575756"/>
<path fill-rule="evenodd" clip-rule="evenodd" d="M309.328 153.953C311.862 153.236 313.575 151.876 313.575 150.307C313.575 148.002 309.837 146.153 305.268 146.153C301.198 146.153 297.802 147.607 297.065 149.539C296.962 149.789 296.909 150.057 296.909 150.328C296.903 150.373 296.903 150.418 296.909 150.463C297.034 152.706 300.73 154.514 305.216 154.514C306.606 154.515 307.989 154.326 309.328 153.953Z" fill="#575756"/>
<path fill-rule="evenodd" clip-rule="evenodd" d="M93.0404 232.117C96.0621 228.015 97.3082 224.494 97.3082 220.132C96.7163 214.679 93.3934 210.608 94.4734 211.553C102.293 218.439 99.1254 229.147 93.0404 232.46L92.625 232.667L93.0404 232.117ZM102.085 222.074C102.076 219.253 101.224 216.5 99.6381 214.168C98.0522 211.836 95.8051 210.032 93.1858 208.987C90.101 207.754 86.689 207.604 83.5079 208.562C80.6421 209.409 78.12 211.147 76.306 213.522C74.4921 215.898 73.4802 218.788 73.4166 221.777C73.3531 224.765 74.2411 227.696 75.9524 230.147C77.6637 232.598 80.1096 234.44 82.9368 235.409C86.2124 236.547 89.7858 236.485 93.0196 235.233C95.6788 234.207 97.9661 232.402 99.5819 230.054C101.198 227.706 102.066 224.924 102.074 222.074H102.085Z" fill="#575756"/>
<path fill-rule="evenodd" clip-rule="evenodd" d="M72.2724 388.27C74.1935 387.055 80.2992 386.484 86.6334 382.932C106.768 371.59 111.638 354.973 113.808 351.649C113.121 345.641 113.522 339.558 114.992 333.692C115.046 331.143 114.767 328.597 114.161 326.12L113.185 320.522C109.997 312.463 111.752 315.226 110.33 309.721C109.291 305.816 109.52 302.627 109.52 298.67C108.167 294.132 108.07 289.311 109.239 284.722C102.687 272.093 92.8119 264.168 92.5315 249.243C92.1162 227.194 92.4796 203.296 92.4796 181.153C98.3881 175.513 147.608 170.03 193.858 167.059C243.878 163.84 260.118 162.791 285.632 160.049C293.659 159.01 304.24 157.785 306.005 157.411C300.398 157.411 295.31 155.334 295.621 150.951C275.456 156.663 244.74 159.82 159.072 167.132C118.471 170.591 85.9066 176.313 83.6429 178.962C83.0094 179.055 82.7498 199.848 82.7083 210.421C82.7083 216.445 82.0853 220.204 82.0956 226.425C81.7322 246.034 79.78 264.303 86.1039 283.216C88.0976 289.136 90.2575 295.046 92.1266 300.986C97.7339 319.318 100.6 343.984 85.9793 359.044C73.207 372.193 60.5385 369.201 44.9626 373.065C44.9132 373.677 44.985 374.293 45.1739 374.878C45.3627 375.462 45.665 376.004 46.0633 376.472C53.1451 385.59 62.4907 391.843 74.1 393.203H77.1321C82.7395 392.923 88.4299 391.126 94.5149 388.353C99.6946 386.024 104.35 382.671 108.201 378.497C112.052 374.322 115.019 369.411 116.923 364.06C115.531 360.448 114.556 356.688 114.016 352.854C113.348 357.585 111.746 362.136 109.302 366.241C101.244 379.068 88.0872 388.27 72.2724 388.27Z" fill="#575756"/>
<path fill-rule="evenodd" clip-rule="evenodd" d="M233.39 477.735C238.458 477.797 246.214 478.483 250.918 476.842C251.801 469.073 249.88 457.95 246.308 451.261C240.077 439.649 236.069 435.287 223.525 431.102C215.831 428.526 210.909 428.661 203.391 431.496C200.679 432.51 198.168 433.998 195.977 435.89C194.38 437.182 192.981 438.701 191.823 440.397C177.358 460.92 205.904 475.813 222.705 477.184C226.163 477.454 229.901 477.548 233.39 477.735Z" fill="white"/>
<path fill-rule="evenodd" clip-rule="evenodd" d="M233.93 434.425C230.591 432.46 227.121 430.725 223.546 429.232C216.973 426.667 212.29 428.63 205.893 431.465C201.789 433.383 198.351 436.482 196.018 440.366C183.672 460.889 198.178 473.061 222.653 477.901C239.164 481.173 245.643 474.193 246.64 473.082C255.83 462.883 243.67 439.961 233.93 434.425Z" fill="#72A5B0"/>
<path fill-rule="evenodd" clip-rule="evenodd" d="M222.601 470.631C225.228 470.631 227.378 462.976 227.378 453.577C227.378 444.178 225.228 436.523 222.601 436.523C219.974 436.523 217.825 444.188 217.825 453.577C217.825 462.966 219.964 470.631 222.601 470.631Z" fill="#575756"/>
<path fill-rule="evenodd" clip-rule="evenodd" d="M259.693 480.331C251.386 482.72 227.388 481.038 218.427 479.096C211.696 477.721 205.267 475.15 199.445 471.503C189.061 464.971 182.602 455.301 186.86 442.849C188.021 439.553 190.018 436.615 192.654 434.322C198.884 429.014 204.377 426.865 212.383 425.816C225.104 424.143 238.136 428.931 245.841 439.421C248.372 442.78 250.629 446.336 252.59 450.056C256.526 457.815 260.472 471.69 259.641 480.373L259.693 480.331ZM250.877 476.821C251.398 470.728 250.811 464.591 249.143 458.708C246.827 449.361 240.534 438.829 231.801 434.322C226.402 431.528 219.528 428.474 213.339 429.129C201.75 430.396 188.916 437.51 187.856 450.358C187.389 464.14 202.706 472.397 214.18 475.637C221.449 477.714 229.839 477.662 237.346 477.901C241.801 478.005 246.651 478.078 250.877 476.821Z" fill="#575756"/>
<path fill-rule="evenodd" clip-rule="evenodd" d="M379.638 477.413C374.571 477.475 366.824 478.161 362.12 476.52C361.238 468.751 363.159 457.628 366.731 450.939C372.961 439.328 376.959 434.966 389.513 430.77C397.208 428.204 402.119 428.339 409.648 431.175C412.36 432.182 414.868 433.67 417.051 435.568C418.649 436.855 420.049 438.37 421.205 440.065C435.67 460.598 407.124 475.481 390.313 476.863C386.907 477.143 383.179 477.237 379.638 477.413Z" fill="white"/>
<path fill-rule="evenodd" clip-rule="evenodd" d="M379.15 434.114C382.489 432.149 385.959 430.414 389.534 428.921C396.107 426.345 400.78 428.319 407.187 431.154C409.557 432.198 411.705 433.69 413.511 435.547C414.907 436.866 416.103 438.381 417.062 440.044C429.419 460.577 414.912 472.739 390.437 477.59C373.927 480.851 367.447 473.882 366.44 472.771C357.25 462.582 369.41 439.65 379.15 434.114Z" fill="#72A5B0"/>
<path fill-rule="evenodd" clip-rule="evenodd" d="M390.479 470.33C393.106 470.33 395.256 462.665 395.256 453.276C395.256 443.887 393.137 436.191 390.479 436.191C387.821 436.191 385.702 443.845 385.702 453.245C385.702 462.644 387.852 470.33 390.479 470.33Z" fill="#575756"/>
<path fill-rule="evenodd" clip-rule="evenodd" d="M353.387 480.03C361.695 482.419 385.692 480.736 394.653 478.794C401.385 477.401 407.813 474.816 413.635 471.161C424.019 464.628 430.468 454.948 426.21 442.495C425.053 439.2 423.056 436.264 420.416 433.979C414.185 428.672 408.703 426.522 400.686 425.462C387.966 423.801 374.924 428.578 367.229 439.078C364.679 442.427 362.405 445.977 360.428 449.693C356.503 457.451 352.557 471.327 353.387 480.009V480.03ZM362.162 476.52C361.642 470.427 362.226 464.291 363.886 458.407C366.212 449.059 372.504 438.528 381.227 434.02C386.637 431.216 393.511 428.173 399.7 428.827C411.288 430.084 424.113 437.209 425.172 450.056C425.639 463.838 410.333 472.085 398.848 475.336C391.642 477.413 383.2 477.413 375.692 477.6C371.331 477.735 366.419 477.735 362.162 476.52Z" fill="#575756"/>
<path fill-rule="evenodd" clip-rule="evenodd" d="M425.514 267.627C428.297 263.836 431.745 259.567 434.683 255.859C440.644 248.33 463.759 220.547 474.631 226.623C485.233 232.512 489.044 255.267 490.83 266.547C496.354 301.984 496.52 350.455 491.411 386.162C489.667 398.369 487.908 410.569 486.136 422.762C486.365 423.936 487.039 425.878 488.867 425.41C496.447 415.959 502.065 369.887 503.135 355.502C505.575 322.766 510.175 238.141 490.03 212.56C470.539 188.766 431.88 246.097 422.306 259.848C405.598 284.182 390.001 310.355 375.578 336.133C374.197 338.604 373.21 340.64 377.219 339.113C380.458 337.867 386.917 325.549 389.098 321.976C400.52 303.344 412.649 285.283 425.514 267.627Z" fill="#575756"/>
<path fill-rule="evenodd" clip-rule="evenodd" d="M187.535 267.627C184.741 263.836 181.304 259.567 178.365 255.859C172.405 248.33 149.29 220.547 138.418 226.623C127.806 232.512 124.005 255.267 122.209 266.547C116.695 301.984 116.529 350.455 121.638 386.162C123.382 398.369 125.141 410.569 126.913 422.762C126.684 423.936 126.009 425.878 124.182 425.41C116.602 415.959 110.973 369.887 109.904 355.502C107.474 322.766 102.864 238.141 123.019 212.56C142.51 188.766 181.169 246.097 190.733 259.848C207.451 284.182 223.037 310.355 237.461 336.133C238.842 338.604 239.818 340.64 235.82 339.113C232.58 337.867 226.121 325.549 223.93 321.976C212.56 303.344 200.431 285.283 187.535 267.627Z" fill="#575756"/>
</svg>
